Patient4_TMGait_0pt4_01_right_35_EMG.mot
version=1
nRows=40
nColumns=33
inDegrees=no
endheader
time	1LAddLong	2LGlutMax	3LGlutMed	4LIliopsoas	5LSemiMemb	6LBicFemLong	7LRecFem	8LVastMed	9LVastLat	10LGasMed	11LTibAnt	12lTibPost	13LPeroneusLong	14LSol	15LExtDigLong	16LFlexDigLong	17RAddLong	18RGlutMax	19RGlutMed	20RIliopsoas	21RSemiMemb	22RBicFemLong	23RRecFem	24RVastMed	25RVastLat	26RGasMed	27RTibAnt	28RTibPost	29RPeroneusLong	30RSol	31RExtDigLong	32RFlexDigLong
46.017	0.001526	0.014191	0.029144	0.01358	0.000305	-0.023499	0.029907	0.010834	0.10986	-0.026093	-0.33234	-0.00824	0.07431	0.13733	0.28976	-0.010223	-0.037079	0.48157	1.2703	0.10086	0.15411	0.043945	0.38238	0.10452	-0.01358	-0.16785	0.005798	0.076599	0.46524	1.232	0.001526	-0.002899
46.018	-0.003052	-0.030365	0.007935	0.009003	0.018158	-0.025177	0.033722	0.010071	0.11795	-0.052338	-0.23926	-0.00351	0.084686	0.12512	-0.059204	-0.007935	-0.044556	0.43015	-0.62393	0.10025	0.12604	0.017853	0.31204	0.085144	0.058136	-0.10864	0.014496	0.1236	0.49271	0.24582	-0.000458	0.002747
46.019	-0.009766	-0.048828	-0.028381	0.014496	0.016632	-0.005035	0.077667	0.01358	0.11078	-0.048828	-0.032349	-0.005646	0.006256	0.074463	-0.10925	-0.004425	-0.045624	0.43045	-1.3948	-0.039368	0.050354	0.032196	0.13962	0.14999	0.19791	-0.054321	0.032196	0.09552	0.9166	-0.27832	0.000458	-0.001373
46.02	0.000305	-0.005951	-0.043335	0.011902	0.012512	0.016632	0.083923	0.023346	0.11047	-0.041199	0.12512	0.002899	-0.090027	0.10498	0.45197	-0.022888	-0.027008	0.29739	-0.8757	-0.20081	0.029755	-0.009308	0.24902	0.0737	0.24307	-0.01709	0.061188	-0.001678	0.61371	-0.27237	-0.001984	-0.003662
46.021	-0.00885	-0.031433	-0.060425	0.020752	0.011139	0.011444	0.095978	0.019379	0.13016	-0.050812	0.1413	-0.003357	-0.029755	-0.048523	-0.72006	-0.007629	-0.025787	0.046692	-0.33432	-0.10117	0.1239	-0.047302	0.29343	-0.088043	0.15198	0.18646	0.052795	-0.21042	0.37933	-0.53329	-0.004883	-0.005035
46.022	0.003052	-0.069122	-0.079498	0.036316	0.024261	-0.01358	0.11444	0.017548	0.13245	-0.028381	0.24887	-0.00061	0.086823	-0.25436	-0.81955	-0.02182	-0.024414	-0.007172	-0.83176	0.048828	0.069275	-0.061493	0.36789	-0.12222	0.044098	0.14984	0.033264	-0.25177	0.2034	-0.084229	-0.005493	-0.005341
46.023	0.006256	-0.073395	-0.1239	0.045471	0.009308	-0.048676	0.09201	0.021362	0.14069	-0.030823	0.014343	-0.008698	0.1471	-0.3183	-0.60455	-0.022736	-0.014801	-0.12665	-1.145	0.083618	-0.094147	-0.084534	0.28137	-0.093231	0.003052	0.1004	0.071716	0.11978	0.094452	0.25696	-0.00061	0.002747
46.024	0.000763	-0.12741	-0.15625	0.005188	0.003204	-0.007019	0.13046	0.015411	0.14587	-0.006256	-0.11017	-0.006256	0.07309	-0.21927	-0.40588	-0.014343	-0.017853	-0.18021	-1.4258	0.068665	-0.31845	-0.12344	0.18173	-0.050507	-0.057678	0.04303	0.079956	0.039978	0.13779	0.28137	-0.003967	0.002747
46.025	-0.006714	-0.11566	-0.15396	-0.018158	0.004578	-0.008392	0.17395	0.018158	0.12817	0.008087	-0.066833	-0.005951	-0.009155	0.001984	-0.10986	-0.010681	-0.00061	-0.23544	-1.3397	0.035553	-0.11078	-0.23712	-0.018158	-0.039063	-0.21545	0.011597	0.036011	-0.24094	0.10788	0.23117	0	0.012512
46.026	-0.005646	-0.12116	-0.16769	-0.027161	0.008392	-0.00473	0.17197	0.01709	0.13382	0.042114	-0.12116	0.003967	-0.036011	-0.007629	0.10895	-0.009613	0.005341	-0.22018	-0.96435	0.000458	-0.089874	-0.16007	-0.33341	0.012054	-0.37674	0.013428	-0.028839	-0.18509	0.17685	0.13306	0.002594	0.01358
46.027	-0.002136	-0.11688	-0.20157	-0.007019	0.01236	-0.016937	0.1947	0.00946	0.12695	0.044556	0.058289	-0.004883	-0.074158	-0.11276	0.22415	-0.000305	0.002136	-0.20416	-0.88058	-0.052948	-0.05249	-0.045929	-0.33768	0.013275	-0.12054	0.028076	-0.003815	0.29556	0.18433	-0.45517	0.001831	0.019989
46.028	-0.008087	-0.13458	-0.19959	-0.003815	0.004578	-0.024261	0.14587	0.014038	0.12772	0.040283	0.15396	0.00351	-0.034332	-0.17838	0.52765	-0.009308	0.037689	-0.12375	-0.67047	-0.000763	0.098572	-0.075531	-0.16174	-0.045624	-0.00885	0.030975	0.000916	0.20554	0.053864	-0.41733	0.002136	0.009613
46.029	-0.003967	-0.13306	-0.12222	0.006104	0.011902	-0.029602	0.12405	0.015869	0.10773	0.049744	0.13123	0.005188	0.024719	-0.19104	1.2299	-0.007477	0.016937	-0.18509	0.36514	-0.089569	0.093994	-0.11948	-0.03891	-0.1384	-0.084381	0.039063	0.00946	0.12375	-0.080414	0.1207	-0.004272	0.01709
46.03	0.002747	-0.13107	-0.22446	-0.001526	-0.004272	-0.032806	0.17654	0.012665	0.10773	0.034637	-0.10681	-0.001678	0.040436	-0.10117	1.0712	-0.006866	0.007629	-0.16571	0.57709	-0.045471	0.032806	-0.11765	-0.044098	-0.11627	-0.11261	0.063019	0.034943	0.022278	-0.18112	-0.33249	-0.006104	0.011444
46.031	0.001068	-0.15839	-0.3122	-0.001984	0.010223	-0.014801	0.13565	0.009003	0.098267	0.041962	-0.0737	0.010376	-0.028839	-0.044861	0.26703	-0.00473	0.018921	-0.11093	0.30502	-0.008392	0.046997	-0.11963	-0.025635	-0.080109	-0.082092	0.054932	0.024414	-0.019531	-0.16876	-0.29098	-0.001678	0.005646
46.032	-0.057068	-0.15762	-0.34531	-0.014648	0.010834	-0.033112	0.13199	0.01297	0.090332	0.050354	0.033264	0.019073	-0.038757	-0.021667	-0.1767	-0.010681	0.018158	-0.047607	0.094299	0.054474	-0.021362	-0.033112	-0.031586	-0.10666	-0.062714	0.052795	0.022125	-0.026855	-0.06485	-0.25559	-0.000458	0.005646
46.033	-0.000153	-0.15457	-0.34866	-0.026093	0.007782	-0.008087	0.18143	0.006714	0.098572	0.027466	-0.11627	0.012665	-0.034943	0.003815	-0.30792	-0.001984	0.019226	0.029907	0.72784	-0.045166	-0.098114	0.011444	-0.054169	-0.076599	-0.016327	0.037537	-0.032654	-0.033417	0.2385	-0.10757	-0.00061	-0.002441
46.034	-0.005035	-0.16556	-0.32867	-0.006256	0.015106	-0.00885	0.21515	0.002747	0.10895	0.004425	-0.11673	0.019989	-0.042725	0.092163	0.17181	-0.01236	0.020905	0.12848	0.85968	-0.089874	-0.051117	-0.029907	-0.017853	-0.048981	0.007172	0.010376	-0.063171	-0.035553	0.30395	0.097046	0.000305	0.002899
46.035	0.014343	-0.13077	-0.31097	0.018311	0.00946	-0.012665	0.19669	-0.001526	0.10437	0.040588	-0.19089	-0.023193	-0.077209	0.068207	-0.28122	-0.010986	0.018616	0.24536	1.1646	-0.17868	-0.012817	-0.016327	0.005493	0.096283	0.029449	0.005341	-0.006409	-0.015869	-0.12955	-0.072021	-0.001221	-0.009155
46.036	0.028839	-0.11917	-0.30991	0.027313	0.008545	0.019836	0.11368	-0.001678	0.10208	0.073242	-0.11978	0.01358	-0.073547	0.017395	-0.57388	-0.03418	0.028992	0.23636	0.49423	-0.059357	-0.065765	-0.014191	0.059662	0.014954	-0.009613	-0.016632	0.068207	0.005035	-0.75699	-0.51346	0.001831	-0.016632
46.037	0.025787	-0.19028	-0.28076	0.029144	0.001526	0.018616	0.1149	-0.001984	0.090485	0.062408	0.18951	-0.012665	-0.058289	0.013275	-0.39429	-0.016327	0.028992	0.094757	-0.5014	0.076141	-0.12878	0.028229	0.037079	0.031891	-0.014801	-0.016022	0.097198	0.009003	-0.81055	-0.12878	-0.000763	-0.024261
46.038	0.016327	-0.25131	-0.28412	0.011597	0.009308	0.006866	0.068512	-0.003052	0.095978	0.010986	0.1976	-0.008087	0.029755	-0.016937	-0.089417	0.006561	0.024719	0.10559	-0.65765	0.10086	-0.086365	0.035706	0.036621	-0.032806	0.012817	-0.084076	0.076904	-0.037231	-0.84061	0.056458	0.00351	-0.023499
46.039	-0.000153	-0.31616	-0.27145	0.003052	0.003052	0.019073	0.078125	-0.006561	0.10223	0.020294	-0.026703	-0.009308	0.10544	-0.14481	-0.11963	0.003815	0.019836	0.075836	-0.62057	0.097351	0.012665	0.04837	0.014038	-0.038757	0.004425	-0.1091	-0.024872	-0.09552	-0.32471	0.055847	0.002136	-0.014191
46.04	0.005341	-0.31876	-0.2533	0.005341	0.006561	-0.005035	0.11993	-0.007782	0.1059	0.055237	-0.25024	-0.005493	0.005188	-0.1059	-0.2446	0.001984	-0.005341	0.014801	-0.74204	0.040436	0.1445	0.067902	-0.1712	-0.05188	0.036926	-0.10391	-0.045471	-0.40344	0.2298	0.11231	0.001221	-0.020142
46.041	-0.016022	-0.35217	-0.23102	0.010986	0.00473	-0.024109	0.14435	0.002289	0.10422	0.053101	-0.090485	0.007629	-0.041504	-0.041351	-0.1683	-0.005798	-0.014038	0.11887	-0.8284	-0.001526	-0.002747	0.079346	-0.32288	-0.073395	0.10468	-0.07431	-0.040588	0.00412	0.2803	0.30975	0.002594	-0.017242
46.042	-0.014801	-0.37521	-0.22049	0.004883	0.007782	-0.016785	0.19943	-0.001068	0.10544	0.039063	0.006866	0.015564	-0.11002	-0.00946	0.25681	0.013123	-0.010223	0.14297	-0.66238	-0.045624	0.013275	0.028381	-0.27344	0.022278	0.10162	-0.02533	0.044861	0.16937	0.073853	-0.18478	-0.006561	-0.02182
46.043	-0.004883	-0.40863	-0.19272	0.006256	0.004425	-0.003967	0.29739	-0.000458	0.11429	0.022888	-0.02533	0.014191	-0.076294	0.011139	0.023499	0.032349	0.002289	0.085602	-0.12772	-0.042419	0.011292	0.025635	-0.21011	0.069275	0.018921	0.023193	0.11856	-0.2182	-0.059662	-0.023193	-0.004578	-0.015564
46.044	-0.011902	-0.47607	-0.17014	0.00351	0.008087	0.001831	0.31845	0.006409	0.1181	0.026703	-0.039978	-0.017548	-0.031433	-0.087891	0.13886	0.008545	0.002441	0.056305	0.20645	-0.000916	0.001221	0.02655	-0.089417	-0.058136	-0.080566	0.10346	0.10757	0.085449	0.48187	0.10483	0.003967	-0.012512
46.045	-0.009308	-0.50018	-0.13412	-0.020447	0.009308	0.011749	0.36819	0.003967	0.12787	0.000916	-0.018005	0.002441	-0.009918	-0.089722	-0.2832	0.012817	0.016174	0.14572	0.01236	-0.12497	0.00351	0.019379	-0.00824	-0.090485	-0.10117	-0.02533	0.018005	0.22217	0.58441	0.082397	0	-0.027313
46.046	-0.00946	-0.53619	-0.13184	-0.02594	0.004272	0.00946	0.46356	0.007019	0.11475	0.023193	-0.040741	-0.005646	0.02594	-0.049286	0.08255	0.016632	0.020905	0.19852	-0.50522	-0.21149	-0.006256	0.030365	0.12039	-0.1088	-0.088196	-0.058899	-0.18051	-0.023651	-0.092468	0.015564	-0.003815	-0.027771
46.047	-0.012207	-0.54504	-0.13916	-0.025024	0.012054	0.013123	0.51025	0.007172	0.11932	0.035553	0.095825	-0.007324	-0.02243	-0.036469	-0.12024	0.006561	0.018005	0.10117	-0.79483	-0.14633	0.000153	0.046997	0.098572	-0.006256	-0.045319	-0.032959	-0.24292	-0.20233	-0.21683	-0.060272	-0.000458	-0.02243
46.048	-0.002289	-0.54871	-0.15243	-0.024414	0.007935	0.020447	0.466	0.005188	0.10605	-0.002441	0.14954	-0.015106	0.028687	0.003357	0.10727	0.02243	0.008698	0.34698	-0.80017	-0.053711	-0.004883	0.045166	-0.065002	0.12726	0.10086	-0.12054	-0.22858	-0.3215	0.01236	-0.28	-0.002136	-0.023651
46.049	0.001984	-0.55679	-0.13794	-0.02243	0.00885	0.034637	0.38361	0.007172	0.11536	-0.027161	0.12238	-0.002441	0.039673	0.026855	0.069733	0.026703	0.009613	0.45273	-0.63736	0.08255	0.005798	0.033722	-0.088806	0.006714	0.042419	-0.16815	-0.22263	-0.010223	0.1445	-0.47775	-0.001221	-0.023651
46.05	-0.013885	-0.52017	-0.10788	-0.028076	0.008087	0.01709	0.39291	0.005798	0.14084	-0.01358	-0.023041	0.003052	-0.049744	0.052032	0.7431	0.010681	0.008392	0.50583	0.59876	0.15259	-0.020447	0.023956	-0.040741	0.038605	0.026703	-0.085297	-0.1767	0.13504	0.08728	-0.57037	-0.001831	-0.021973
46.051	-0.005188	-0.53345	-0.08667	-0.021057	0.008087	0.015869	0.38788	0.020905	0.14099	0.000763	0.11627	-0.012512	-0.10147	0.023193	0.10239	0.00473	0.027313	0.49088	0.34271	0.15778	-0.051422	0.016327	0.072327	-0.02655	-0.000305	0.007019	-0.00473	0.17288	-0.12421	-0.74326	0.001068	-0.02121
46.052	-0.001068	-0.50384	-0.076599	-0.030518	0.005798	0.031738	0.29312	0.012817	0.13062	0.022125	0.13534	-0.008545	-0.08728	0.014038	-0.17502	0.016174	0.003815	0.59891	0.29495	0.047913	0.003357	0.065155	0.11276	-0.13718	-0.048676	-0.061951	0.097351	0.076599	-0.63965	-0.15335	-0.002747	-0.041504
46.053	0.000458	-0.42297	-0.075378	-0.024109	0.006104	0.050049	0.15656	0.017853	0.13611	0.030518	0.21576	-0.016937	-0.087128	0.030975	-0.38666	0.005493	-0.018921	0.67902	0.16464	0.031281	0.047302	0.05722	0.055084	-0.05661	-0.057373	-0.050201	0.14862	-0.27206	-0.31586	0.076141	0.001984	-0.039673
46.054	-0.005341	-0.327	-0.052643	-0.015106	0.000916	0.037994	0.19486	0.019684	0.12482	0.027618	0.053864	-0.031738	-0.035706	-0.02533	-0.36926	-0.004272	-0.032806	0.7048	-0.033112	-0.041199	0.028839	0.002594	0.039673	0.027466	0.021057	0.042114	0.19424	-0.093994	0.13519	-0.2359	0.001221	-0.038147
46.055	-0.015564	-0.27344	-0.082703	-0.018158	0.008545	0.044861	0.2739	0.006714	0.11902	0.017395	-0.068359	-0.031738	-0.016785	-0.083008	-0.32761	-0.010986	-0.020905	0.67825	0.32272	-0.03952	0.005646	-0.000305	0.084534	0.13992	0.0914	0.063934	0.19806	0.037384	0.48859	0.3804	-0.005341	-0.030823
46.056	-0.008698	-0.20691	-0.067749	0.003204	0.009918	0.036163	0.10376	0.00885	0.10513	0.010071	-0.091705	-0.036316	0.011139	-0.09079	0.028381	0.003815	0.014343	0.69504	0.17456	-0.054321	-0.038147	0.038147	0.12573	0.041504	0.068207	0.024872	0.27252	0.068817	0.4483	1.1794	0.001526	-0.028992
